# xmcd CD database file generated by Grip 2.94
# 
# Track frame offsets:
#       150
#       21331
#       41138
#       59332
#       85800
#       104775
#       128660
#       149025
#       177211
#       194137
#       215709
#       237140
#       258003
# 
# Disc length: 3759 seconds
# 
# Revision: 3
# Processed by: cddbd v1.4b41PL1 Copyright (c) Steve Scherf et al.
# Submitted via: Grip 2.94
# 
DISCID=c80ead0d
DTITLE=Doug Ellis - Taconite Town
DYEAR=1900
DGENRE=
TTITLE0=Taconite Town
TTITLE1=Only Matters to Me
TTITLE2=Young Lovers
TTITLE3=Day The Angels Came
TTITLE4=All I Want is an Ordinary Girl
TTITLE5=Roll Baby in my Arms Tonight
TTITLE6=Your Day Will Come
TTITLE7=Another Day Older, Another Day Spent
TTITLE8=Born a Hard Working Man
TTITLE9=Young Hunters Tale
TTITLE10=Truckers Grin
TTITLE11=Slow Down, Take Five
TTITLE12=Baby I'm Going Down
EXTD=
EXTT0=
EXTT1=
EXTT2=
EXTT3=
EXTT4=
EXTT5=
EXTT6=
EXTT7=
EXTT8=
EXTT9=
EXTT10=
EXTT11=
EXTT12=
PLAYORDER=
